<svg width="241" height="50" viewBox="0 0 241 50" fill="none" xmlns="http://www.w3.org/2000/svg">
<g clip-path="url(#clip0_1288_16788)">
<path d="M91.3879 30.7537H96.3359L93.8619 23.8077L91.3879 30.7537ZM84.259 37.9034C84.2031 37.8538 84.1581 37.7931 84.1269 37.7252C84.0958 37.6572 84.0791 37.5835 84.0781 37.5088C84.0781 37.3994 84.0881 37.3179 84.106 37.2633L90.5818 19.804C90.7666 19.2782 91.1384 19.0138 91.694 19.0138H96.0298C96.5854 19.0138 96.9562 19.2782 97.141 19.804L103.617 37.2633C103.639 37.3431 103.649 37.4259 103.646 37.5088C103.644 37.5835 103.628 37.6571 103.596 37.725C103.565 37.7929 103.52 37.8536 103.465 37.9034C103.413 37.9584 103.35 38.0025 103.281 38.0329C103.212 38.0632 103.137 38.0794 103.061 38.0803H99.4481C99.0038 38.0803 98.6877 37.8805 98.5028 37.481L97.5029 34.8389H90.2209L89.22 37.481C89.0341 37.8805 88.72 38.0803 88.2747 38.0803H84.6616C84.586 38.0794 84.5114 38.0633 84.4423 38.0329C84.3731 38.0025 84.3108 37.9584 84.259 37.9034Z" fill="#070F46"/>
<path d="M106.093 36.7459C105.092 35.6744 104.592 34.1585 104.592 32.1974V24.5974C104.592 24.3986 104.661 24.2346 104.801 24.1074C104.94 23.9812 105.101 23.9166 105.287 23.9166H108.983C109.173 23.9119 109.357 23.9802 109.498 24.1074C109.566 24.1693 109.62 24.2451 109.656 24.3297C109.691 24.4143 109.709 24.5056 109.706 24.5974V32.0334C109.706 33.7222 110.474 34.5671 112.013 34.5671C112.753 34.5671 113.333 34.3444 113.75 33.8991C114.167 33.4548 114.375 32.8326 114.375 32.0334V24.5974C114.375 24.3986 114.444 24.2346 114.584 24.1074C114.725 23.9798 114.909 23.9114 115.098 23.9166H118.767C118.859 23.9134 118.95 23.9287 119.036 23.9614C119.122 23.9942 119.201 24.0438 119.267 24.1074C119.331 24.1713 119.382 24.2479 119.415 24.3322C119.448 24.4165 119.464 24.5068 119.461 24.5974V37.3999C119.461 37.4881 119.445 37.5756 119.411 37.6573C119.378 37.7391 119.329 37.8134 119.267 37.876C119.203 37.9435 119.125 37.9965 119.039 38.0318C118.953 38.0671 118.86 38.0838 118.767 38.0808H115.376C115.186 38.0861 115.002 38.0177 114.862 37.89C114.793 37.8283 114.739 37.7526 114.703 37.668C114.667 37.5833 114.65 37.4919 114.653 37.3999V36.3642C113.69 37.6902 112.151 38.3531 110.039 38.3531C108.409 38.3531 107.093 37.8174 106.093 36.7459Z" fill="#070F46"/>
<path d="M123.767 32.6597V27.6212H121.572C121.481 27.6215 121.391 27.6036 121.308 27.5684C121.224 27.5332 121.149 27.4815 121.086 27.4165C121.02 27.3559 120.967 27.2823 120.931 27.2003C120.895 27.1184 120.877 27.0299 120.877 26.9404V24.5976C120.877 24.3978 120.947 24.2347 121.086 24.1075C121.225 23.9803 121.387 23.9167 121.572 23.9167H123.767V19.4219C123.767 19.2231 123.837 19.0591 123.976 18.9319C124.115 18.8056 124.277 18.741 124.462 18.741H127.882C127.973 18.7379 128.065 18.7532 128.151 18.786C128.237 18.8187 128.315 18.8683 128.382 18.9319C128.446 18.9958 128.496 19.0723 128.53 19.1566C128.563 19.241 128.578 19.3313 128.575 19.4219V23.9167H132.05C132.24 23.9114 132.424 23.9798 132.564 24.1075C132.633 24.1691 132.687 24.2449 132.723 24.3295C132.759 24.4141 132.776 24.5056 132.773 24.5976V26.9404C132.776 27.0323 132.759 27.1238 132.723 27.2084C132.687 27.293 132.633 27.3688 132.564 27.4304C132.424 27.5581 132.24 27.6265 132.05 27.6212H128.575V32.2512C128.575 32.8874 128.696 33.3675 128.937 33.6945C129.178 34.0215 129.566 34.1855 130.105 34.1855H132.3C132.393 34.1823 132.486 34.1988 132.572 34.2339C132.658 34.269 132.736 34.322 132.801 34.3893C132.865 34.4564 132.915 34.5354 132.948 34.6219C132.982 34.7083 132.998 34.8005 132.996 34.8932V37.3991C132.996 37.4875 132.979 37.5752 132.946 37.657C132.912 37.7389 132.863 37.8134 132.801 37.8762C132.736 37.9435 132.658 37.9964 132.572 38.0315C132.486 38.0667 132.393 38.0831 132.3 38.0799H129.66C125.732 38.0799 123.767 36.2739 123.767 32.6597Z" fill="#070F46"/>
<path d="M143.333 34.2261C143.704 33.7629 143.917 33.0503 143.972 32.0881C143.991 31.9072 144 31.5434 144 30.9987C144 30.454 143.991 30.0912 143.972 29.9093C143.917 28.965 143.704 28.2573 143.333 27.7841C142.962 27.312 142.398 27.0764 141.638 27.0764C140.878 27.0764 140.312 27.312 139.943 27.7841C139.572 28.2573 139.358 28.965 139.303 29.9093L139.276 30.9987L139.303 32.0881C139.358 33.0503 139.572 33.7629 139.943 34.2261C140.312 34.6893 140.878 34.9209 141.638 34.9209C142.398 34.9209 142.962 34.6893 143.333 34.2261ZM136.26 36.7588C135.009 35.6972 134.329 34.1854 134.217 32.2243C134.198 31.9887 134.189 31.5802 134.189 30.9987C134.189 30.4172 134.198 30.0087 134.217 29.7731C134.329 27.8478 135.027 26.3458 136.316 25.2654C137.603 24.1849 139.377 23.6442 141.638 23.6442C143.899 23.6442 145.672 24.1849 146.96 25.2654C148.248 26.3458 148.947 27.8478 149.058 29.7731C149.095 30.2452 149.114 30.6538 149.114 30.9987C149.114 31.3436 149.095 31.7521 149.058 32.2243C148.947 34.1854 148.266 35.6972 147.016 36.7588C145.765 37.8214 143.972 38.3531 141.638 38.3531C139.303 38.3531 137.51 37.8214 136.26 36.7588Z" fill="#070F46"/>
<path d="M151.41 37.8752C151.344 37.8145 151.291 37.7407 151.255 37.6586C151.219 37.5765 151.201 37.4877 151.201 37.3981V24.5966C151.201 24.3968 151.271 24.2338 151.41 24.1066C151.549 23.9793 151.711 23.9157 151.896 23.9157H155.314C155.406 23.9104 155.497 23.9243 155.583 23.9564C155.669 23.9885 155.747 24.0382 155.813 24.1023C155.878 24.1664 155.93 24.2435 155.964 24.3286C155.998 24.4137 156.013 24.505 156.01 24.5966V25.6323C156.51 25.033 157.154 24.5519 157.941 24.1881C158.729 23.8253 159.632 23.6434 160.652 23.6434C161.708 23.6434 162.648 23.8799 163.472 24.3521C164.296 24.8242 164.945 25.523 165.418 26.4494C165.89 27.3748 166.127 28.492 166.127 29.7991V37.3981C166.127 37.4865 166.11 37.5742 166.077 37.6561C166.044 37.738 165.994 37.8124 165.932 37.8752C165.868 37.9426 165.79 37.9957 165.704 38.031C165.618 38.0663 165.525 38.083 165.432 38.08H161.735C161.546 38.0854 161.362 38.0169 161.222 37.8891C161.153 37.8274 161.099 37.7514 161.063 37.6666C161.027 37.5818 161.01 37.4902 161.013 37.3981V29.9631C161.013 29.1451 160.813 28.5189 160.415 28.0835C160.017 27.6471 159.437 27.4295 158.678 27.4295C157.936 27.4295 157.353 27.6521 156.928 28.0964C156.5 28.5417 156.287 29.164 156.287 29.9631V37.3981C156.288 37.4865 156.271 37.5741 156.238 37.656C156.205 37.7379 156.156 37.8124 156.094 37.8752C156.029 37.9427 155.951 37.9958 155.865 38.031C155.779 38.0663 155.686 38.083 155.593 38.08H151.896C151.805 38.0803 151.716 38.0623 151.632 38.0271C151.549 37.9919 151.473 37.9403 151.41 37.8752Z" fill="#070F46"/>
<path d="M177.243 34.2261C177.614 33.7629 177.827 33.0503 177.882 32.0881C177.901 31.9072 177.91 31.5434 177.91 30.9987C177.91 30.454 177.901 30.0912 177.882 29.9093C177.827 28.965 177.614 28.2573 177.243 27.7841C176.872 27.312 176.308 27.0764 175.549 27.0764C174.788 27.0764 174.223 27.312 173.853 27.7841C173.482 28.2573 173.268 28.965 173.214 29.9093L173.186 30.9987L173.214 32.0881C173.268 33.0503 173.482 33.7629 173.853 34.2261C174.223 34.6893 174.788 34.9209 175.549 34.9209C176.308 34.9209 176.872 34.6893 177.243 34.2261ZM170.17 36.7588C168.92 35.6972 168.239 34.1854 168.127 32.2243C168.109 31.9887 168.1 31.5802 168.1 30.9987C168.1 30.4172 168.109 30.0087 168.127 29.7731C168.239 27.8478 168.938 26.3458 170.226 25.2654C171.513 24.1849 173.287 23.6442 175.549 23.6442C177.809 23.6442 179.582 24.1849 180.87 25.2654C182.158 26.3458 182.857 27.8478 182.969 29.7731C183.005 30.2452 183.024 30.6538 183.024 30.9987C183.024 31.3436 183.005 31.7521 182.969 32.2243C182.857 34.1854 182.176 35.6972 180.926 36.7588C179.676 37.8214 177.882 38.3531 175.549 38.3531C173.214 38.3531 171.421 37.8214 170.17 36.7588Z" fill="#070F46"/>
<path d="M185.316 37.8752C185.25 37.8145 185.198 37.7407 185.162 37.6586C185.126 37.5764 185.107 37.4877 185.107 37.3981V24.5966C185.107 24.3968 185.177 24.2338 185.316 24.1065C185.455 23.9793 185.617 23.9157 185.802 23.9157H189.027C189.118 23.9105 189.21 23.9245 189.295 23.9567C189.381 23.9889 189.459 24.0386 189.524 24.1027C189.59 24.1668 189.641 24.2438 189.675 24.3288C189.709 24.4139 189.725 24.5051 189.721 24.5966V25.523C190.166 24.9962 190.74 24.5518 191.445 24.188C192.149 23.8252 192.946 23.6433 193.835 23.6433C195.873 23.6433 197.272 24.4246 198.032 25.9862C198.476 25.2963 199.098 24.7328 199.894 24.2974C200.677 23.8647 201.557 23.6395 202.451 23.6433C203.97 23.6433 205.207 24.1473 206.161 25.1552C207.115 26.1631 207.592 27.666 207.592 29.6629V37.3981C207.593 37.4865 207.576 37.5743 207.543 37.6562C207.509 37.7381 207.46 37.8125 207.397 37.8752C207.333 37.9426 207.256 37.9957 207.17 38.031C207.084 38.0662 206.991 38.0829 206.899 38.0799H203.479C203.29 38.0853 203.105 38.0169 202.965 37.8891C202.897 37.8273 202.843 37.7514 202.807 37.6666C202.771 37.5818 202.754 37.4902 202.757 37.3981V29.8537C202.757 29.0188 202.576 28.4055 202.215 28.0149C201.853 27.6252 201.367 27.4294 200.756 27.4294C200.181 27.4294 199.713 27.6252 199.352 28.0149C198.99 28.4055 198.809 29.0188 198.809 29.8537V37.3981C198.81 37.4864 198.793 37.5741 198.76 37.656C198.727 37.7378 198.678 37.8123 198.616 37.8752C198.551 37.9426 198.473 37.9957 198.387 38.031C198.301 38.0663 198.208 38.083 198.115 38.0799H194.696C194.507 38.0852 194.323 38.0168 194.182 37.8891C194.114 37.8273 194.06 37.7514 194.024 37.6666C193.988 37.5818 193.971 37.4902 193.974 37.3981V29.8537C193.974 29.0188 193.788 28.4055 193.418 28.0149C193.047 27.6252 192.565 27.4294 191.973 27.4294C191.398 27.4294 190.925 27.6252 190.555 28.0149C190.185 28.4055 190 29.0099 190 29.8269V37.3981C190 37.4865 189.983 37.5742 189.95 37.656C189.917 37.7379 189.867 37.8124 189.805 37.8752C189.741 37.9427 189.663 37.9959 189.576 38.0312C189.49 38.0665 189.397 38.0831 189.304 38.0799H185.802C185.712 38.0802 185.622 38.0623 185.538 38.0271C185.455 37.9919 185.379 37.9402 185.316 37.8752Z" fill="#070F46"/>
<path d="M211.429 36.7459C210.429 35.6744 209.928 34.1585 209.928 32.1974V24.5974C209.928 24.3986 209.997 24.2346 210.136 24.1074C210.276 23.9812 210.438 23.9166 210.623 23.9166H214.319C214.509 23.9117 214.693 23.9801 214.834 24.1074C214.902 24.1693 214.956 24.2451 214.992 24.3297C215.027 24.4143 215.045 24.5056 215.042 24.5974V32.0334C215.042 33.7222 215.81 34.5671 217.349 34.5671C218.089 34.5671 218.669 34.3444 219.086 33.8991C219.503 33.4548 219.712 32.8326 219.712 32.0334V24.5974C219.712 24.3986 219.781 24.2346 219.92 24.1074C220.061 23.9799 220.245 23.9116 220.434 23.9166H224.103C224.195 23.9134 224.286 23.9287 224.372 23.9614C224.458 23.9942 224.537 24.0438 224.603 24.1074C224.667 24.1713 224.718 24.2478 224.751 24.3321C224.785 24.4164 224.801 24.5067 224.798 24.5974V37.3999C224.798 37.4882 224.781 37.5757 224.748 37.6574C224.714 37.7391 224.665 37.8134 224.603 37.876C224.539 37.9435 224.461 37.9965 224.375 38.0318C224.289 38.0671 224.196 38.0838 224.103 38.0808H220.712C220.523 38.0862 220.338 38.0178 220.198 37.89C220.129 37.8283 220.075 37.7526 220.039 37.668C220.003 37.5833 219.986 37.4919 219.989 37.3999V36.3642C219.026 37.6902 217.487 38.3531 215.375 38.3531C213.745 38.3531 212.43 37.8174 211.429 36.7459Z" fill="#070F46"/>
<path d="M229.66 37.7269C228.641 37.3095 227.886 36.8105 227.395 36.229C226.904 35.6475 226.658 35.1217 226.658 34.6496C226.658 34.4677 226.728 34.3176 226.867 34.1993C227.006 34.082 227.159 34.0224 227.325 34.0224H230.689C230.74 34.0209 230.791 34.0298 230.839 34.0486C230.886 34.0674 230.93 34.0957 230.966 34.1317C231.148 34.2409 231.325 34.359 231.495 34.4856C231.847 34.74 232.176 34.9348 232.481 35.071C232.787 35.2072 233.153 35.2758 233.579 35.2758C234.079 35.2758 234.492 35.1804 234.816 34.9895C235.14 34.7987 235.302 34.5313 235.302 34.1864C235.302 33.8961 235.214 33.6596 235.038 33.4777C234.862 33.2968 234.529 33.1198 234.038 32.9469C233.547 32.7739 232.801 32.597 231.8 32.4151C228.594 31.7799 226.992 30.3277 226.992 28.0575C226.992 27.313 227.238 26.6003 227.729 25.9194C228.219 25.2385 228.942 24.6899 229.897 24.2714C230.851 23.8539 231.995 23.6452 233.329 23.6452C234.682 23.6452 235.854 23.849 236.845 24.2575C237.836 24.666 238.591 25.157 239.11 25.7286C239.629 26.3011 239.888 26.823 239.888 27.2951C239.888 27.376 239.872 27.4561 239.841 27.5308C239.81 27.6055 239.765 27.6733 239.707 27.7305C239.653 27.791 239.587 27.8394 239.513 27.8723C239.438 27.9052 239.358 27.9219 239.277 27.9213H236.219C236.052 27.9213 235.923 27.8855 235.831 27.812C235.596 27.6966 235.373 27.5598 235.164 27.4034C234.83 27.1858 234.538 27.0178 234.288 26.8995C234.038 26.7822 233.718 26.7226 233.329 26.7226C232.866 26.7226 232.504 26.823 232.244 27.0227C232.123 27.109 232.024 27.2234 231.956 27.3562C231.889 27.489 231.854 27.6361 231.856 27.7851C231.856 28.0575 231.934 28.2801 232.092 28.4521C232.249 28.625 232.574 28.793 233.065 28.956C233.555 29.12 234.302 29.293 235.302 29.4739C237.118 29.783 238.438 30.3317 239.263 31.1219C240.087 31.9121 240.499 32.8336 240.499 33.8862C240.499 35.2479 239.884 36.3334 238.652 37.1415C237.419 37.9496 235.692 38.3531 233.468 38.3531C231.948 38.3531 230.679 38.1444 229.66 37.7269Z" fill="#070F46"/>
<path d="M39.2984 41.2572L38.8133 41.7422C38.5204 42.0361 38.1723 42.2692 37.789 42.428C37.4057 42.5869 36.9947 42.6683 36.5798 42.6676C36.0908 42.6676 35.1505 42.5474 34.3454 41.7422L33.8613 41.2572L29.0156 46.1028L29.5007 46.5869C30.4292 47.5181 31.5326 48.2565 32.7475 48.7598C33.9624 49.263 35.2648 49.5211 36.5798 49.5192C39.1413 49.5192 41.7038 48.5421 43.659 46.5869L44.144 46.1018L39.2984 41.2572Z" fill="#F46475"/>
<path d="M69.7237 24.7839L62.079 17.1392C61.1504 16.2081 60.0469 15.4698 58.832 14.9666C57.6171 14.4633 56.3148 14.2052 54.9998 14.2069C53.6848 14.2052 52.3825 14.4633 51.1676 14.9666C49.9527 15.4698 48.8493 16.2081 47.9207 17.1392L47.4386 17.6213L52.2843 22.4659L52.7663 21.9848C53.059 21.6907 53.4071 21.4575 53.7905 21.2987C54.1738 21.1398 54.5849 21.0585 54.9998 21.0595C55.4889 21.0595 56.4292 21.1787 57.2343 21.9848L64.878 29.6296C65.1721 29.9223 65.4054 30.2704 65.5642 30.6537C65.723 31.0371 65.8043 31.4481 65.8034 31.863C65.8034 32.3521 65.6841 33.2914 64.878 34.0975L57.2343 41.7412C56.9413 42.0352 56.593 42.2683 56.2095 42.4272C55.826 42.586 55.4149 42.6674 54.9998 42.6666C54.5108 42.6666 53.5715 42.5464 52.7663 41.7412L50.6342 39.6101L50.6352 39.6082L45.7906 34.7635L45.7886 34.7645L45.1216 34.0965C44.8275 33.8038 44.5943 33.4557 44.4354 33.0724C44.2766 32.689 44.1953 32.278 44.1962 31.863C44.1962 31.374 44.3155 30.4347 45.1216 29.6286L45.7886 28.9616L46.4565 29.6286C46.8768 30.0504 47.1695 30.5824 47.3008 31.1632C47.4322 31.744 47.3969 32.3501 47.199 32.9117L47.2179 32.8928L52.2087 37.8826C55.1718 33.9604 54.8766 28.3593 51.3022 24.7839L50.6342 24.1159L45.7896 19.2703L45.7886 19.2713L43.6575 17.1392C42.7289 16.2081 41.6254 15.4698 40.4105 14.9666C39.1957 14.4633 37.8933 14.2052 36.5783 14.2069C34.0159 14.2069 31.4534 15.184 29.4982 17.1392L27.3671 19.2713L27.3432 19.2474L22.4976 24.0921L22.5214 24.1159L21.8545 24.7839C18.2791 28.3583 17.9839 33.9584 20.946 37.8816L25.9467 32.8809C25.7561 32.3226 25.7256 31.7221 25.8586 31.1473C25.9915 30.5725 26.2827 30.0465 26.6991 29.6286L27.3671 28.9616L28.0341 29.6296C28.8402 30.4347 28.9605 31.374 28.9605 31.863C28.9605 32.3521 28.8402 33.2914 28.0341 34.0975L27.3671 34.7645L27.3641 34.7615L22.5185 39.6072L22.5214 39.6101L20.3903 41.7412C20.0973 42.0352 19.749 42.2683 19.3655 42.4271C18.982 42.5859 18.5709 42.6673 18.1559 42.6666C17.6668 42.6666 16.7265 42.5464 15.9224 41.7412L8.27767 34.0965C7.98371 33.8037 7.7506 33.4556 7.59178 33.0723C7.43296 32.6889 7.35155 32.278 7.35227 31.863C7.35227 31.374 7.47254 30.4347 8.27767 29.6286L15.9224 21.9848C16.215 21.6906 16.5631 21.4573 16.9465 21.2985C17.3298 21.1397 17.7409 21.0584 18.1559 21.0595C18.6449 21.0595 19.5842 21.1787 20.3903 21.9848L20.8486 22.4431L25.6942 17.5984L25.235 17.1392C24.3064 16.2081 23.203 15.4698 21.9881 14.9666C20.7732 14.4633 19.4708 14.2052 18.1559 14.2069C16.8409 14.2052 15.5385 14.4633 14.3237 14.9666C13.1088 15.4698 12.0053 16.2081 11.0767 17.1392L3.432 24.7839C-0.477333 28.6932 -0.477333 35.0329 3.432 38.9422L11.0767 46.5869C12.0053 47.518 13.1088 48.2563 14.3237 48.7595C15.5385 49.2627 16.8409 49.5209 18.1559 49.5192C20.7184 49.5192 23.2798 48.5421 25.235 46.5869L25.5531 46.2688L25.5511 46.2668L32.5597 39.2583L32.5617 39.2603L32.8797 38.9422C36.7891 35.0329 36.7891 28.6932 32.8797 24.7839L32.2118 24.1159L34.3439 21.9848C35.149 21.1787 36.0893 21.0595 36.5783 21.0595C36.9933 21.0585 37.4043 21.1398 37.7877 21.2987C38.171 21.4575 38.5191 21.6907 38.8118 21.9848L40.9439 24.1159L40.276 24.7839C36.3666 28.6932 36.3666 35.0329 40.276 38.9422L40.7223 39.3885L40.7242 39.3865L47.7328 46.3951L47.7308 46.3971L47.9207 46.5869C48.8493 47.518 49.9527 48.2563 51.1676 48.7595C52.3825 49.2627 53.6848 49.5209 54.9998 49.5192C57.5623 49.5192 60.1238 48.5421 62.079 46.5869L69.7237 38.9422C73.633 35.0329 73.633 28.6932 69.7237 24.7839Z" fill="#F46475"/>
<ellipse cx="17.7206" cy="5.41196" rx="5.41196" ry="5.41196" fill="#F46475"/>
<ellipse cx="36.4159" cy="5.41196" rx="5.41196" ry="5.41196" fill="#F46475"/>
<ellipse cx="55.1112" cy="5.41196" rx="5.41196" ry="5.41196" fill="#F46475"/>
</g>
<defs>
<clipPath id="clip0_1288_16788">
<rect width="240" height="50" fill="white" transform="translate(0.5)"/>
</clipPath>
</defs>
</svg>
