<svg width="311" height="88" viewBox="0 0 311 88" fill="none" xmlns="http://www.w3.org/2000/svg">
<path d="M53.5 44.0611C53.5 38.5045 49.0229 34 43.5 34C37.9771 34 33.5 38.5045 33.5 44.0611C33.5 49.0828 37.1568 53.2452 41.9375 54V46.9694H39.3984V44.0611H41.9375V41.8445C41.9375 39.323 43.4305 37.9301 45.7146 37.9301C46.8088 37.9301 47.9531 38.1266 47.9531 38.1266V40.6026H46.6922C45.45 40.6026 45.0625 41.3782 45.0625 42.1739V44.0611H47.8359L47.3926 46.9694H45.0625V54C49.8432 53.2452 53.5 49.083 53.5 44.0611Z" fill="#F46475"/>
<path fill-rule="evenodd" clip-rule="evenodd" d="M103.5 35H95.5C92.7386 35 90.5 37.2386 90.5 40V48C90.5 50.7614 92.7386 53 95.5 53H103.5C106.261 53 108.5 50.7614 108.5 48V40C108.5 37.2386 106.261 35 103.5 35ZM106.75 48C106.744 49.7926 105.293 51.2445 103.5 51.25H95.5C93.7074 51.2445 92.2555 49.7926 92.25 48V40C92.2555 38.2074 93.7074 36.7555 95.5 36.75H103.5C105.293 36.7555 106.744 38.2074 106.75 40V48ZM104.25 40.25C104.802 40.25 105.25 39.8023 105.25 39.25C105.25 38.6977 104.802 38.25 104.25 38.25C103.698 38.25 103.25 38.6977 103.25 39.25C103.25 39.8023 103.698 40.25 104.25 40.25ZM99.5 39.5C97.0147 39.5 95 41.5147 95 44C95 46.4853 97.0147 48.5 99.5 48.5C101.985 48.5 104 46.4853 104 44C104.003 42.8057 103.529 41.6596 102.685 40.8151C101.84 39.9706 100.694 39.4973 99.5 39.5ZM96.75 44C96.75 45.5188 97.9812 46.75 99.5 46.75C101.019 46.75 102.25 45.5188 102.25 44C102.25 42.4812 101.019 41.25 99.5 41.25C97.9812 41.25 96.75 42.4812 96.75 44Z" fill="#F46475"/>
<path fill-rule="evenodd" clip-rule="evenodd" d="M148 35C147.172 35 146.5 35.6716 146.5 36.5V51.5C146.5 52.3284 147.172 53 148 53H163C163.828 53 164.5 52.3284 164.5 51.5V36.5C164.5 35.6716 163.828 35 163 35H148ZM152.021 39.0027C152.026 39.959 151.311 40.5482 150.461 40.544C149.661 40.5398 148.964 39.9027 148.968 39.0041C148.972 38.159 149.64 37.4798 150.508 37.4994C151.388 37.5191 152.026 38.1646 152.021 39.0027ZM155.78 41.7618H153.26H153.258V50.3216H155.922V50.1219C155.922 49.742 155.921 49.362 155.921 48.9819C155.92 47.9681 155.919 46.9532 155.925 45.9397C155.926 45.6936 155.937 45.4377 156 45.2028C156.238 44.3253 157.027 43.7586 157.907 43.8979C158.473 43.9864 158.847 44.3141 159.004 44.8471C159.101 45.1803 159.145 45.5389 159.149 45.8863C159.161 46.9339 159.159 47.9815 159.157 49.0292C159.157 49.399 159.156 49.769 159.156 50.1388V50.3202H161.828V50.1149C161.828 49.6629 161.828 49.211 161.827 48.7591C161.827 47.6296 161.826 46.5001 161.829 45.3702C161.831 44.8597 161.776 44.3563 161.651 43.8627C161.464 43.1286 161.077 42.5211 160.448 42.0824C160.003 41.7702 159.513 41.5691 158.966 41.5466C158.904 41.544 158.841 41.5406 158.778 41.5372C158.498 41.5221 158.214 41.5067 157.947 41.5607C157.182 41.7139 156.51 42.0641 156.002 42.6814C155.943 42.7522 155.885 42.8241 155.799 42.9314L155.78 42.9557V41.7618ZM149.182 50.3244H151.832V41.7673H149.182V50.3244Z" fill="#F46475"/>
<path d="M216.676 36H219.436L213.406 42.7774L220.5 52H214.946L210.595 46.4066L205.617 52H202.855L209.305 44.7508L202.5 36H208.195L212.128 41.1126L216.676 36ZM215.707 50.3754H217.237L207.364 37.5393H205.723L215.707 50.3754Z" fill="#F46475"/>
<path fill-rule="evenodd" clip-rule="evenodd" d="M276.069 36.7735C277.016 37.0269 277.756 37.769 278.012 38.7167C278.682 41.4204 278.639 46.5321 278.026 49.278C277.772 50.2257 277.03 50.965 276.083 51.2213C273.407 51.8831 261.424 51.8015 258.903 51.2213C257.955 50.9678 257.216 50.2257 256.96 49.278C256.327 46.7011 256.371 41.2514 256.946 38.7308C257.199 37.7831 257.941 37.0438 258.889 36.7875C262.466 36.0412 274.796 36.282 276.069 36.7735ZM265.367 40.7023L271.112 43.9974L265.367 47.2925V40.7023Z" fill="#F46475"/>
</svg>
